HIERARCHY
ROOT root
{
	OFFSET	0	13.1	24.9
	CHANNELS 6  Xposition Yposition Zposition Xrotation Yrotation Zrotation
	JOINT spine_1
	{
		OFFSET	0	9.99999	0
		CHANNELS 3  Xrotation Yrotation Zrotation
		JOINT spine_2
		{
			OFFSET	0	112	-10
			CHANNELS 3  Xrotation Yrotation Zrotation
			JOINT spine_3
			{
				OFFSET	0	206.5	19.3
				CHANNELS 3  Xrotation Yrotation Zrotation
				JOINT spine_4
				{
					OFFSET	0	110.4	14.6
					CHANNELS 3  Xrotation Yrotation Zrotation
					JOINT neck_1
					{
						OFFSET	0	71.8	-50.3
						CHANNELS 3  Xrotation Yrotation Zrotation
						JOINT neck_2
						{
							OFFSET	0	86.2	-25.8
							CHANNELS 3  Xrotation Yrotation Zrotation
							JOINT head_ee
							{
								OFFSET	0	179.8	-8.7
								CHANNELS 3  Xrotation Yrotation Zrotation
								End Site
								{
									OFFSET	1	0	0
								}
							}
						}
					}
					JOINT left_clavicle
					{
						OFFSET	-43.2	22.4	-70.8
						CHANNELS 3  Xrotation Yrotation Zrotation
						JOINT left_shoulder
						{
							OFFSET	-93.9	-5.79999	48.7
							CHANNELS 3  Xrotation Yrotation Zrotation
							JOINT left_elbow
							{
								OFFSET	-291.4	-30.8	15.2
								CHANNELS 3  Xrotation Yrotation Zrotation
								JOINT left_lowarm_twist
								{
									OFFSET	-110.7	-3.89999	13.6
									CHANNELS 3  Xrotation Yrotation Zrotation
									JOINT left_hand
									{
										OFFSET	-110.7	-3.89999	13.6
										CHANNELS 3  Xrotation Yrotation Zrotation
										JOINT left_ee
										{
											OFFSET	-80.8	-5.10001	12.1
											CHANNELS 3  Xrotation Yrotation Zrotation
											End Site
											{
												OFFSET	1	0	0
											}
										}
									}
								}
							}
						}
					}
					JOINT right_clavicle
					{
						OFFSET	43.2	22.4	-70.8
						CHANNELS 3  Xrotation Yrotation Zrotation
						JOINT right_shoulder
						{
							OFFSET	93.9	-5.79999	48.7
							CHANNELS 3  Xrotation Yrotation Zrotation
							JOINT right_elbow
							{
								OFFSET	291.4	-30.8	15.2
								CHANNELS 3  Xrotation Yrotation Zrotation
								JOINT right_lowarm_twist
								{
									OFFSET	110.7	-3.89999	13.6
									CHANNELS 3  Xrotation Yrotation Zrotation
									JOINT right_hand
									{
										OFFSET	110.7	-3.89999	13.6
										CHANNELS 3  Xrotation Yrotation Zrotation
										JOINT right_ee
										{
											OFFSET	80.8	-5.10001	12.1
											CHANNELS 3  Xrotation Yrotation Zrotation
											End Site
											{
												OFFSET	1	0	0
											}
										}
									}
								}
							}
						}
					}
				}
			}
		}
	}
	JOINT left_hip
	{
		OFFSET	-82.8	-127.5	0.300001
		CHANNELS 3  Xrotation Yrotation Zrotation
		JOINT left_knee
		{
			OFFSET	-28.2	-396.7	2.2
			CHANNELS 3  Xrotation Yrotation Zrotation
			JOINT left_ankle
			{
				OFFSET	-11.7	-411.3	35.4
				CHANNELS 3  Xrotation Yrotation Zrotation
				JOINT left_toes
				{
					OFFSET	0	-60	-88.6
					CHANNELS 3  Xrotation Yrotation Zrotation
					JOINT left_foot_ee
					{
						OFFSET	-22.5	-16.5	-42.2
						CHANNELS 3  Xrotation Yrotation Zrotation
						End Site
						{
							OFFSET	1	0	0
						}
					}
				}
			}
		}
	}
	JOINT right_hip
	{
		OFFSET	82.8	-127.5	0.300001
		CHANNELS 3  Xrotation Yrotation Zrotation
		JOINT right_knee
		{
			OFFSET	28.2	-396.7	2.2
			CHANNELS 3  Xrotation Yrotation Zrotation
			JOINT right_ankle
			{
				OFFSET	11.7	-411.3	35.4
				CHANNELS 3  Xrotation Yrotation Zrotation
				JOINT right_toes
				{
					OFFSET	0	-60	-88.6
					CHANNELS 3  Xrotation Yrotation Zrotation
					JOINT right_foot_ee
					{
						OFFSET	22.5	-16.5	-42.2
						CHANNELS 3  Xrotation Yrotation Zrotation
						End Site
						{
							OFFSET	1	0	0
						}
					}
				}
			}
		}
	}
}
MOTION
Frames: 9
Frame Time: 0.02
1712.47 719.448 -583.29 167.82 -73.6744 162.723 -1.47961 0.540291 3.0184 -1.47461 0.347219 3.04663 -1.45131 -0.378245 3.04293 -1.46421 0.106844 3.06447 -9.29992 4.40978 2.15702 -9.29963 6.79596 3.16169 -0.0 0.0 -0.0 -9.08208 23.6063 -9.91296 19.2143 -27.6285 73.722 2.74077 -53.6171 1.38517 19.4565 0.2704 -2.45877 1.43436 -2.24055 8.71512 -0.0 0.0 -0.0 8.56606 12.6655 -16.6386 -4.27697 -8.44026 -70.7681 0.198675 5.62095 -0.00975322 14.5203 -0.281238 1.82857 -2.17111 -12.1046 8.77381 0.0 0.0 0.0 -12.8678 4.77689 4.56579 4.55984 -0.214449 -0.666553 20.6731 18.4796 -2.8704 -21.6857 0.0 0.0 -0.0 0.0 -0.0 -6.59189 38.0538 -2.05212 -3.90373 -0.140929 -0.582411 37.8118 4.9848 4.73787 14.6277 -0.0 -0.0 0.0 0.0 0.0 
1717.52 718.119 -578.79 168.774 -73.7365 163.678 -1.39306 0.570797 2.98844 -1.38817 0.379567 3.01867 -1.36348 -0.335541 3.02387 -1.37621 0.146006 3.03891 -9.90245 4.71933 2.08615 -9.90861 7.46763 3.20156 -0.0 0.0 -0.0 -9.32643 23.8391 -10.1759 18.3305 -25.9702 74.0413 2.74348 -53.6442 1.38736 19.0445 0.273381 -2.40623 1.14189 -0.811762 7.31927 -0.0 0.0 -0.0 8.90247 11.0707 -17.4224 -3.8664 -10.0186 -70.2666 0.276054 7.78702 -0.0187881 15.4407 -0.283336 1.94611 -2.47947 -13.3733 10.1049 0.0 0.0 0.0 -12.7829 3.51373 4.07749 4.92564 -0.233946 -0.719267 21.3784 17.3437 -2.94786 -21.5721 0.0 0.0 -0.0 0.0 -0.0 -5.33429 36.735 -2.75794 -5.61649 -0.190163 -0.840646 39.3656 7.48163 4.91857 14.0154 -0.0 -0.0 0.0 0.0 0.0 
1724.21 716.092 -574.693 166.76 -74.3746 161.969 -1.42962 0.572737 3.03933 -1.42456 0.37827 3.06957 -1.3994 -0.35063 3.07285 -1.41255 0.13883 3.08966 -11.7286 5.32456 2.30029 -11.7515 8.59756 3.68839 -0.0 0.0 -0.0 -8.77592 24.0084 -9.31416 18.7804 -23.8498 73.6417 2.55865 -51.7192 1.24034 19.6481 0.268885 -2.48319 1.58629 -5.22686 8.50958 -0.0 0.0 -0.0 8.51305 10.9754 -16.5836 -1.89308 -10.6363 -70.9764 0.239134 6.75595 -0.014115 15.1472 -0.282872 1.90863 -2.43657 -16.3965 8.28295 0.0 0.0 0.0 -11.1224 4.40724 3.40918 0.817503 -0.0345256 -0.120698 26.0881 20.2251 -3.55615 -18.9065 0.0 0.0 -0.0 0.0 -0.0 -5.93992 37.1788 -3.50473 -4.48364 -0.158464 -0.669683 39.5001 7.89021 4.93821 13.8112 -0.0 -0.0 0.0 0.0 0.0 
1723.04 715.651 -567.666 166.845 -73.4449 162.334 -1.39217 0.756574 3.098 -1.38701 0.558007 3.13981 -1.35108 -0.189383 3.18334 -1.36508 0.315483 3.17333 -14.2634 5.93122 1.30017 -14.3453 10.5358 3.13158 -0.0 0.0 -0.0 -8.90467 24.1469 -9.44536 18.4428 -26.7649 72.6708 2.27969 -48.468 1.02627 16.8479 0.282893 -2.12584 1.69048 -5.64397 9.04492 -0.0 0.0 -0.0 9.05378 10.7554 -17.7588 0.328615 -11.1658 -71.4935 0.227057 6.41766 -0.0127296 15.3248 -0.283176 1.9313 -2.88836 -16.3702 11.1107 0.0 0.0 0.0 -9.8988 2.64884 2.12978 -3.67669 0.133823 0.548293 30.0764 20.3883 -4.01932 -19.4396 0.0 0.0 -0.0 0.0 -0.0 -6.84764 36.8525 -4.03381 -1.23406 -0.0488419 -0.183081 39.5203 9.92579 4.98333 11.7307 -0.0 -0.0 0.0 0.0 0.0 
1727.76 714.669 -562.718 163.672 -74.449 159.485 -1.51497 0.560356 3.09404 -1.50972 0.362437 3.12339 -1.48481 -0.383313 3.1209 -1.49838 0.114133 3.14226 -16.0197 7.37647 -0.15575 -16.2213 14.2288 2.45753 -0.0 0.0 -0.0 -8.35244 23.6454 -8.84206 17.7405 -27.3642 71.6256 1.99784 -44.6975 0.821429 15.5239 0.283432 -1.95674 1.84793 -6.56103 9.73331 -0.0 0.0 -0.0 9.16268 10.7319 -17.9956 4.18523 -11.9083 -71.7624 0.19989 5.65512 -0.00987262 16.1743 -0.283656 2.0398 -3.00492 -17.0588 11.4635 0.0 0.0 0.0 -8.70564 2.68911 1.72014 -7.45196 0.234326 1.11885 37.2531 23.4377 -4.85104 -18.273 0.0 0.0 -0.0 0.0 -0.0 -7.46616 36.4648 -5.15188 -1.06035 -0.042206 -0.157248 39.131 11.2973 4.98209 11.5304 -0.0 -0.0 0.0 0.0 0.0 
1735.91 712.455 -558.197 164.259 -73.4386 160.22 -1.40531 0.75877 3.15854 -1.39994 0.556353 3.20036 -1.3633 -0.205816 3.24179 -1.37783 0.308472 3.23364 -17.311 8.26059 -1.31675 -17.6264 16.5979 1.89149 -0.0 0.0 -0.0 -8.1061 23.7418 -8.45346 16.7404 -26.1991 71.1429 1.82355 -42.0885 0.701661 14.4672 0.281059 -1.82179 1.71633 -7.04398 8.62817 -0.0 0.0 -0.0 9.27507 10.8331 -18.2373 7.39905 -12.2682 -72.388 0.198485 5.61563 -0.00973466 17.2249 -0.282025 2.17398 -3.06734 -17.4198 11.6532 0.0 0.0 0.0 -7.39166 2.83798 1.03301 -11.2475 0.297263 1.69775 42.5301 25.4046 -5.41837 -16.709 0.0 0.0 -0.0 0.0 -0.0 -8.62076 36.0795 -5.38181 2.30556 0.101786 0.339114 39.1826 12.8147 5.02718 11.9654 -0.0 -0.0 0.0 0.0 0.0 
1750.04 715.379 -557.21 158.724 -75.3212 154.555 -1.4225 0.573025 3.18754 -1.41692 0.36914 3.2175 -1.39088 -0.393707 3.21459 -1.40528 0.118644 3.23642 -16.5141 9.4217 -2.03646 -16.9029 19.2268 1.54308 -0.0 0.0 -0.0 -8.00789 24.629 -7.9954 14.9952 -24.9657 71.2715 1.80426 -41.7857 0.688769 12.2564 0.268047 -1.53972 1.84557 -7.14801 9.46694 -0.0 0.0 -0.0 9.31631 7.44808 -18.3748 7.96782 -13.7717 -71.8483 0.204096 5.77331 -0.0102914 18.2407 -0.278109 2.30367 -3.09178 -17.6404 11.6827 0.0 0.0 0.0 -7.07718 2.94501 0.67427 -13.9277 0.318546 2.1084 39.5166 22.2192 -5.03906 -17.2175 0.0 0.0 -0.0 0.0 -0.0 -9.20335 35.7042 -5.8398 -3.52122 -0.128879 -0.524945 38.9065 13.7278 5.02876 13.4259 -0.0 -0.0 0.0 0.0 0.0 
1759.56 712.583 -551.955 156.485 -75.786 152.06 -1.45392 0.715962 3.36995 -1.44775 0.500201 3.40861 -1.41177 -0.312072 3.43093 -1.42812 0.233366 3.43717 -18.1193 9.88303 -2.34053 -18.6316 20.2664 1.74089 -0.0 0.0 -0.0 -7.81508 24.3207 -7.83459 13.9212 -25.0769 70.4446 1.61424 -38.6445 0.566035 11.9647 0.265518 -1.50255 1.69529 -7.33338 8.36115 -0.0 0.0 -0.0 9.52602 7.45164 -18.8247 9.74921 -13.3276 -72.8123 0.208577 5.89917 -0.010747 18.9853 -0.273779 2.39867 -3.12213 -17.802 11.7811 0.0 0.0 0.0 -6.23415 2.97933 -0.0755215 -15.6011 0.322085 2.36511 42.1702 25.3793 -5.3846 -15.1159 0.0 0.0 -0.0 0.0 -0.0 -10.0919 35.5377 -5.98522 -2.15284 -0.0826359 -0.320035 39.1721 14.4118 5.07341 13.7444 -0.0 -0.0 0.0 0.0 0.0 
1776.33 715.229 -552.607 151.654 -77.0071 147.019 -1.44962 0.727397 3.38179 -1.44341 0.510861 3.42115 -1.40663 -0.304321 3.44564 -1.42311 0.24334 3.45048 -18.1188 10.3059 -2.69674 -18.6833 21.2697 1.59077 -0.0 0.0 -0.0 -7.72338 24.5992 -7.6085 12.2961 -24.6647 71.0983 1.53495 -37.2456 0.517275 11.2019 0.25801 -1.40542 1.67932 -7.30635 8.26379 -0.0 0.0 -0.0 9.94716 6.46985 -19.7273 11.9995 -13.4511 -73.2434 0.241377 6.8187 -0.0143799 19.5682 -0.269527 2.473 -3.12327 -17.8477 11.7627 0.0 0.0 0.0 -4.2399 2.89332 -0.323388 -16.8883 0.319706 2.56259 42.1168 25.2072 -5.37369 -14.6527 0.0 0.0 -0.0 0.0 -0.0 -12.592 35.5747 -5.50759 -4.21622 -0.150488 -0.629417 38.9151 14.8635 5.06444 14.2579 -0.0 -0.0 0.0 0.0 0.0 
